<svg aria-hidden="true" style="position: absolute; width: 0; height: 0; overflow: hidden;" version="1.1" xmlns="http://www.w3.org/2000/svg" xmlns:xlink="http://www.w3.org/1999/xlink">
<defs>
<symbol id="icon-linkedin" viewBox="0 0 32 32">
<path d="M31.992 32v-0.001h0.008v-11.736c0-5.741-1.236-10.164-7.948-10.164-3.227 0-5.392 1.771-6.276 3.449h-0.093v-2.913h-6.364v21.364h6.627v-10.579c0-2.785 0.528-5.479 3.977-5.479 3.399 0 3.449 3.179 3.449 5.657v10.401h6.62z"></path>
<path d="M0.528 10.636h6.635v21.364h-6.635v-21.364z"></path>
<path d="M3.843 0c-2.121 0-3.843 1.721-3.843 3.843s1.721 3.879 3.843 3.879c2.121 0 3.843-1.757 3.843-3.879-0.001-2.121-1.723-3.843-3.843-3.843v0z"></path>
</symbol>
<symbol id="icon-facebook" viewBox="0 0 18 32">
<path d="M13.329 5.313h2.921v-5.088c-0.504-0.069-2.237-0.225-4.256-0.225-4.212 0-7.097 2.649-7.097 7.519v4.481h-4.648v5.688h4.648v14.312h5.699v-14.311h4.46l0.708-5.688h-5.169v-3.919c0.001-1.644 0.444-2.769 2.735-2.769z"></path>
</symbol>
<symbol id="icon-instagram" viewBox="0 0 32 32">
<path d="M31.969 9.408c-0.075-1.7-0.35-2.869-0.744-3.882-0.406-1.075-1.031-2.038-1.85-2.838-0.8-0.813-1.769-1.444-2.832-1.844-1.019-0.394-2.182-0.669-3.882-0.744-1.713-0.081-2.257-0.1-6.601-0.1s-4.888 0.019-6.595 0.094c-1.7 0.075-2.869 0.35-3.882 0.744-1.075 0.406-2.038 1.031-2.838 1.85-0.813 0.8-1.444 1.769-1.844 2.832-0.394 1.019-0.669 2.182-0.744 3.882-0.081 1.713-0.1 2.257-0.1 6.601s0.019 4.888 0.094 6.595c0.075 1.7 0.35 2.869 0.744 3.882 0.406 1.075 1.038 2.038 1.85 2.838 0.8 0.813 1.769 1.444 2.832 1.844 1.019 0.394 2.182 0.669 3.882 0.744 1.706 0.075 2.25 0.094 6.595 0.094s4.888-0.019 6.595-0.094c1.7-0.075 2.869-0.35 3.882-0.744 2.151-0.832 3.851-2.532 4.682-4.682 0.394-1.019 0.669-2.182 0.744-3.882 0.075-1.707 0.094-2.251 0.094-6.595s-0.006-4.888-0.081-6.595zM29.087 22.473c-0.069 1.563-0.331 2.407-0.55 2.969-0.538 1.394-1.644 2.5-3.038 3.038-0.563 0.219-1.413 0.481-2.969 0.55-1.688 0.075-2.194 0.094-6.464 0.094s-4.782-0.019-6.464-0.094c-1.563-0.069-2.407-0.331-2.969-0.55-0.694-0.256-1.325-0.663-1.838-1.194-0.531-0.519-0.938-1.144-1.194-1.838-0.219-0.563-0.481-1.413-0.55-2.969-0.075-1.688-0.094-2.194-0.094-6.464s0.019-4.782 0.094-6.464c0.069-1.563 0.331-2.407 0.55-2.969 0.256-0.694 0.663-1.325 1.2-1.838 0.519-0.531 1.144-0.938 1.838-1.194 0.563-0.219 1.413-0.481 2.969-0.55 1.688-0.075 2.194-0.094 6.464-0.094 4.276 0 4.782 0.019 6.464 0.094 1.563 0.069 2.407 0.331 2.969 0.55 0.694 0.256 1.325 0.662 1.838 1.194 0.531 0.519 0.938 1.144 1.194 1.838 0.219 0.563 0.481 1.413 0.55 2.969 0.075 1.688 0.094 2.194 0.094 6.464s-0.019 4.77-0.094 6.458z"></path>
<path d="M16.059 7.783c-4.538 0-8.22 3.682-8.22 8.22s3.682 8.22 8.22 8.22c4.538 0 8.22-3.682 8.22-8.22s-3.682-8.22-8.22-8.22zM16.059 21.335c-2.944 0-5.332-2.388-5.332-5.332s2.388-5.332 5.332-5.332c2.944 0 5.332 2.388 5.332 5.332s-2.388 5.332-5.332 5.332z"></path>
<path d="M26.524 7.458c0 1.060-0.859 1.919-1.919 1.919s-1.919-0.859-1.919-1.919c0-1.060 0.859-1.919 1.919-1.919s1.919 0.859 1.919 1.919z"></path>
</symbol>
<symbol id="icon-telegram" viewBox="0 0 32 32">
<path d="M32 0l-32 18 10.227 3.787 15.773-14.787-11.997 16.187 0.009 0.003-0.012-0.003v8.813l5.735-6.691 7.267 2.691 4.999-28z"></path>
</symbol>
<symbol id="icon-skype" viewBox="0 0 32 32">
<path d="M30.867 18.626c-0.010 0.056-0.017 0.113-0.028 0.169l-0.055-0.322c0.030 0.050 0.055 0.102 0.083 0.153 0.159-0.823 0.251-1.77 0.252-2.738v-0.001c0-2.040-0.399-4.019-1.188-5.882-0.761-1.8-1.85-3.416-3.239-4.803-1.387-1.388-3.004-2.477-4.802-3.238-1.862-0.788-3.841-1.187-5.881-1.187-0.961 0-1.924 0.090-2.861 0.27-0.002 0-0.005 0-0.007 0.001 0.053 0.028 0.106 0.053 0.158 0.082l-0.318-0.050c0.053-0.010 0.107-0.021 0.16-0.032-1.286-0.683-2.732-1.048-4.195-1.048-2.389 0-4.636 0.93-6.325 2.62s-2.62 3.936-2.62 6.325c0.001 1.592 0.418 3.087 1.149 4.382l-0.023-0.045c0.010-0.055 0.016-0.11 0.027-0.165l0.055 0.317c-0.028-0.050-0.053-0.101-0.082-0.152-0.144 0.782-0.226 1.683-0.228 2.603v0.001c0 2.040 0.399 4.019 1.188 5.882 0.76 1.8 1.85 3.415 3.237 4.803 1.389 1.388 3.004 2.478 4.804 3.237 1.863 0.79 3.842 1.189 5.882 1.189 0.888 0 1.778-0.081 2.646-0.235-0.051-0.028-0.102-0.054-0.154-0.084l0.323 0.057c-0.056 0.011-0.112 0.017-0.169 0.027 1.265 0.729 2.783 1.159 4.401 1.16h0c2.389 0 4.634-0.929 6.324-2.619 1.69-1.689 2.62-3.936 2.62-6.325-0.001-1.598-0.421-3.098-1.156-4.397l0.023 0.044zM16.069 25.141c-5.368 0-7.77-2.639-7.77-4.617 0-1.015 0.749-1.726 1.781-1.726 2.297 0 1.702 3.299 5.989 3.299 2.194 0 3.406-1.192 3.406-2.411 0-0.733-0.362-1.546-1.807-1.902l-4.775-1.192c-3.845-0.964-4.543-3.043-4.543-4.997 0-4.057 3.82-5.58 7.407-5.58 3.305 0 7.2 1.826 7.2 4.26 0 1.043-0.903 1.649-1.935 1.649-1.961 0-1.6-2.714-5.549-2.714-1.96 0-3.045 0.887-3.045 2.157 0 1.268 1.548 1.672 2.892 1.978l3.534 0.784c3.871 0.863 4.853 3.123 4.853 5.252 0 3.297-2.531 5.759-7.639 5.759zM18.501 30.679c0.052 0.030 0.103 0.056 0.154 0.084 0.057-0.010 0.113-0.017 0.169-0.027l-0.323-0.057zM30.84 18.796c0.011-0.056 0.018-0.113 0.028-0.169-0.028-0.051-0.053-0.103-0.082-0.153l0.055 0.322zM1.152 13.118c-0.011 0.055-0.017 0.11-0.027 0.165 0.028 0.051 0.053 0.102 0.082 0.152l-0.055-0.317zM13.298 1.13c-0.052-0.029-0.105-0.054-0.158-0.082-0.053 0.011-0.107 0.022-0.16 0.032l0.318 0.050z"></path>
</symbol>
</defs>
</svg>
